<svg width="14" height="15" viewBox="0 0 14 15" fill="none" xmlns="http://www.w3.org/2000/svg">
<path d="M12.98 3.63317L7.48 0.623791C7.33305 0.542592 7.16789 0.5 7 0.5C6.83211 0.5 6.66695 0.542592 6.52 0.623791L1.02 3.63442C0.86293 3.72036 0.731815 3.84689 0.640345 4.00081C0.548875 4.15472 0.500406 4.33037 0.5 4.50942V10.4869C0.500406 10.666 0.548875 10.8416 0.640345 10.9955C0.731815 11.1494 0.86293 11.276 1.02 11.3619L6.52 14.3725C6.66695 14.4537 6.83211 14.4963 7 14.4963C7.16789 14.4963 7.33305 14.4537 7.48 14.3725L12.98 11.3619C13.1371 11.276 13.2682 11.1494 13.3597 10.9955C13.4511 10.8416 13.4996 10.666 13.5 10.4869V4.51004C13.4999 4.33068 13.4516 4.15464 13.3601 4.00036C13.2686 3.84609 13.1373 3.71926 12.98 3.63317ZM7 1.49879L12.0212 4.24879L7 6.99879L1.97875 4.24879L7 1.49879ZM1.5 5.12379L6.5 7.86004V13.2219L1.5 10.4875V5.12379ZM7.5 13.2219V7.86254L12.5 5.12379V10.485L7.5 13.2219Z" fill="black"/>
</svg>
