<svg width="18" height="18" viewBox="0 0 18 18" fill="none" xmlns="http://www.w3.org/2000/svg">
<path d="M4 1.5V4H1.5V1.5H4ZM5.25 16.5V14C5.25 13.6685 5.1183 13.3505 4.88388 13.1161C4.64946 12.8817 4.33152 12.75 4 12.75H1.5C1.16848 12.75 0.850537 12.8817 0.616116 13.1161C0.381696 13.3505 0.25 13.6685 0.25 14V16.5C0.25 16.8315 0.381696 17.1495 0.616116 17.3839C0.850537 17.6183 1.16848 17.75 1.5 17.75H4C4.33152 17.75 4.64946 17.6183 4.88388 17.3839C5.1183 17.1495 5.25 16.8315 5.25 16.5ZM5.25 10.25V7.75C5.25 7.41848 5.1183 7.10054 4.88388 6.86612C4.64946 6.6317 4.33152 6.5 4 6.5H1.5C1.16848 6.5 0.850537 6.6317 0.616116 6.86612C0.381696 7.10054 0.25 7.41848 0.25 7.75V10.25C0.25 10.5815 0.381696 10.8995 0.616116 11.1339C0.850537 11.3683 1.16848 11.5 1.5 11.5H4C4.33152 11.5 4.64946 11.3683 4.88388 11.1339C5.1183 10.8995 5.25 10.5815 5.25 10.25ZM5.25 4V1.5C5.25 1.16848 5.1183 0.850537 4.88388 0.616116C4.64946 0.381696 4.33152 0.25 4 0.25H1.5C1.16848 0.25 0.850537 0.381696 0.616116 0.616116C0.381696 0.850537 0.25 1.16848 0.25 1.5V4C0.25 4.33152 0.381696 4.64946 0.616116 4.88388C0.850537 5.1183 1.16848 5.25 1.5 5.25H4C4.33152 5.25 4.64946 5.1183 4.88388 4.88388C5.1183 4.64946 5.25 4.33152 5.25 4ZM11.5 16.5V14C11.5 13.6685 11.3683 13.3505 11.1339 13.1161C10.8995 12.8817 10.5815 12.75 10.25 12.75H7.75C7.41848 12.75 7.10054 12.8817 6.86612 13.1161C6.6317 13.3505 6.5 13.6685 6.5 14V16.5C6.5 16.8315 6.6317 17.1495 6.86612 17.3839C7.10054 17.6183 7.41848 17.75 7.75 17.75H10.25C10.5815 17.75 10.8995 17.6183 11.1339 17.3839C11.3683 17.1495 11.5 16.8315 11.5 16.5ZM11.5 10.25V7.75C11.5 7.41848 11.3683 7.10054 11.1339 6.86612C10.8995 6.6317 10.5815 6.5 10.25 6.5H7.75C7.41848 6.5 7.10054 6.6317 6.86612 6.86612C6.6317 7.10054 6.5 7.41848 6.5 7.75V10.25C6.5 10.5815 6.6317 10.8995 6.86612 11.1339C7.10054 11.3683 7.41848 11.5 7.75 11.5H10.25C10.5815 11.5 10.8995 11.3683 11.1339 11.1339C11.3683 10.8995 11.5 10.5815 11.5 10.25ZM11.5 4V1.5C11.5 1.16848 11.3683 0.850537 11.1339 0.616116C10.8995 0.381696 10.5815 0.25 10.25 0.25H7.75C7.41848 0.25 7.10054 0.381696 6.86612 0.616116C6.6317 0.850537 6.5 1.16848 6.5 1.5V4C6.5 4.33152 6.6317 4.64946 6.86612 4.88388C7.10054 5.1183 7.41848 5.25 7.75 5.25H10.25C10.5815 5.25 10.8995 5.1183 11.1339 4.88388C11.3683 4.64946 11.5 4.33152 11.5 4ZM10.25 1.5V4H7.75V1.5H10.25ZM16.5 1.5V4H14V1.5H16.5ZM4 7.75V10.25H1.5V7.75H4ZM10.25 7.75V10.25H7.75V7.75H10.25ZM16.5 7.75H14V10.25H16.5V7.75ZM4 14V16.5H1.5V14H4ZM10.25 14V16.5H7.75V14H10.25ZM16.5 14V16.5H14V14H16.5ZM14 0.25C13.6685 0.25 13.3505 0.381696 13.1161 0.616116C12.8817 0.850537 12.75 1.16848 12.75 1.5V4C12.75 4.33152 12.8817 4.64946 13.1161 4.88388C13.3505 5.1183 13.6685 5.25 14 5.25H16.5C16.8315 5.25 17.1495 5.1183 17.3839 4.88388C17.6183 4.64946 17.75 4.33152 17.75 4V1.5C17.75 1.16848 17.6183 0.850537 17.3839 0.616116C17.1495 0.381696 16.8315 0.25 16.5 0.25H14ZM12.75 7.75C12.75 7.41848 12.8817 7.10054 13.1161 6.86612C13.3505 6.6317 13.6685 6.5 14 6.5H16.5C16.8315 6.5 17.1495 6.6317 17.3839 6.86612C17.6183 7.10054 17.75 7.41848 17.75 7.75V10.25C17.75 10.5815 17.6183 10.8995 17.3839 11.1339C17.1495 11.3683 16.8315 11.5 16.5 11.5H14C13.6685 11.5 13.3505 11.3683 13.1161 11.1339C12.8817 10.8995 12.75 10.5815 12.75 10.25V7.75ZM14 12.75C13.6685 12.75 13.3505 12.8817 13.1161 13.1161C12.8817 13.3505 12.75 13.6685 12.75 14V16.5C12.75 16.8315 12.8817 17.1495 13.1161 17.3839C13.3505 17.6183 13.6685 17.75 14 17.75H16.5C16.8315 17.75 17.1495 17.6183 17.3839 17.3839C17.6183 17.1495 17.75 16.8315 17.75 16.5V14C17.75 13.6685 17.6183 13.3505 17.3839 13.1161C17.1495 12.8817 16.8315 12.75 16.5 12.75H14Z" fill="black"/>
</svg>
